<svg width="86" height="55" viewBox="0 0 86 55" fill="none" xmlns="http://www.w3.org/2000/svg">
<path d="M18.3483 12.2009C11.5693 12.6791 6.59766 15.6696 6.59766 19.258C6.59766 22.0096 9.53607 24.5212 14.2815 25.7172C14.959 25.837 15.4114 26.1962 15.6366 26.6746C17.2189 32.6556 17.896 38.6364 18.1222 44.498H67.8341C67.8341 38.6364 68.7364 32.6554 70.3187 26.6746C70.3187 26.3154 70.9962 25.9567 71.6738 25.7172C76.4202 24.5212 79.3571 22.0096 79.3571 19.258C79.3571 15.6696 74.386 12.6791 67.6069 12.2009C66.9294 12.2009 66.2518 11.8422 65.7995 11.483C61.2802 6.69853 52.4675 3.70801 42.7515 3.70801C33.0359 3.70801 24.2237 6.69853 20.1553 11.483C19.7045 11.8422 19.0254 12.0812 18.3483 12.2009Z" fill="white"/>
<path d="M67.1546 12.2009C66.4775 12.2009 65.7994 11.9614 65.3476 11.483C61.5059 6.69853 52.4674 3.70801 42.7514 3.70801C48.6253 5.26353 53.5969 8.2538 56.3086 11.483C56.5338 11.8422 57.2109 12.0812 58.1161 12.2009C64.8952 12.6791 69.8663 15.6696 69.8663 19.258C69.8663 22.0096 66.9294 24.5212 62.183 25.7172C61.5059 25.837 61.0535 26.1962 61.0535 26.5548C60.8283 27.1527 56.3091 25.2391 56.3091 25.2391V19.2583C56.3091 17.5838 55.1797 16.0291 53.3722 14.833C53.8221 15.5501 54.0498 16.3877 54.0498 17.2254C54.0498 21.6506 47.2707 25.3591 38.6836 25.3591C37.3275 25.3591 36.198 25.2393 34.8429 25.1196C33.0344 24.7609 31.2274 24.4022 30.0975 24.2825C32.3569 22.9667 33.713 21.2922 33.713 19.4977C33.713 17.8233 32.5831 16.268 30.7746 15.0717C31.2269 15.7896 31.4531 16.6272 31.4531 17.4641C31.4531 21.8901 24.6745 25.5983 16.0875 25.5983C14.5062 25.5983 13.1505 25.4785 11.5682 25.2391C13.8276 26.1964 16.766 26.7943 19.9291 26.7943C23.3184 26.7943 16.9912 29.067 15.6361 28.948C15.8613 29.7843 15.8613 30.6217 16.0875 31.3404C17.2169 31.4596 18.573 31.5785 19.9291 31.5785C23.996 31.5785 28.0638 30.8612 31.2274 29.4256C34.3905 30.742 38.4574 31.5785 42.5253 31.5785C46.5936 31.5785 50.66 30.8612 53.8221 29.4256C54.2744 29.6651 54.7268 29.7841 55.1792 29.9046C57.8909 30.8612 59.4712 32.4159 59.246 34.0909C58.569 37.6796 58.3418 41.1477 58.3418 44.6172H67.3803C67.3803 40.1912 67.8326 35.7649 68.7369 31.2199C68.7369 30.8612 68.9621 30.5025 68.9621 30.1438C69.1892 29.0667 69.4144 27.8706 69.6391 26.7941C69.6391 26.4349 70.3187 26.0762 70.769 25.9564C75.5154 24.7604 78.4524 22.2483 78.4524 19.4972C78.9052 15.6696 73.9336 12.6793 67.1546 12.2009Z" fill="#9FBDD3"/>
<path d="M69.8663 46.7705H15.6366V51.5552H69.8663V46.7705Z" fill="white"/>
<path d="M72.1262 53.9471H13.3767C12.0206 53.9471 11.1174 53.4682 11.1174 52.7511V45.574C11.1174 44.8566 12.0211 44.3779 13.3767 44.3779H72.1262C73.4813 44.3779 74.386 44.8566 74.386 45.574V52.7511C74.386 53.4682 73.4808 53.9471 72.1262 53.9471ZM15.6366 51.5548H69.8663V46.77H15.6366V51.5548Z" fill="black"/>
<path d="M58.5685 47.9663C58.5685 49.2818 56.5338 50.3587 54.0493 50.3587H15.6366V51.555H69.8663V50.3587V46.7703H60.8279C59.4737 46.7705 58.5685 47.2492 58.5685 47.9663Z" fill="#9FBDD3"/>
<path d="M68.9621 9.92778C63.9905 4.66488 53.8221 1.31567 42.7514 1.31567C31.6788 1.31567 21.5104 4.66488 16.5398 9.92778C8.17895 10.7654 2.07892 14.7125 2.07892 19.2583C2.07892 22.7273 5.46821 25.8372 11.1174 27.5117C12.6982 33.6125 13.3767 39.7123 13.3767 45.5741C13.3767 46.2915 14.28 46.7704 15.6361 46.7704H69.8658C71.2214 46.7704 72.1257 46.2915 72.1257 45.5741C72.1257 39.7125 72.8027 33.6125 74.3855 27.5117C80.0342 25.8372 83.424 22.727 83.424 19.2583C83.424 14.7125 77.3229 10.7654 68.9621 9.92778ZM71.6738 25.5978C69.8663 26.0762 67.6069 26.4354 65.3476 26.4354C62.6353 26.4354 59.9236 25.9565 57.6637 25.1196C57.4386 25.1196 57.4386 24.9999 57.2114 24.9999C59.4712 23.4451 60.8279 21.4115 60.8279 19.2586C60.8279 18.5407 59.9236 18.0625 58.5685 18.0625C57.2114 18.0625 56.3086 18.5409 56.3086 19.2586C56.3086 23.2057 50.2076 26.4357 42.7514 26.4357C41.3953 26.4357 40.4921 26.9141 40.4921 27.6317C40.4921 28.3491 41.3958 28.8278 42.7514 28.8278C47.0435 28.8278 51.1123 27.9904 54.2745 26.6744C54.5016 26.9138 54.7268 27.0336 54.952 27.1528C57.8909 28.2296 61.5059 28.8278 65.3476 28.8278C66.9294 28.8278 68.2845 28.7075 69.6391 28.5886C68.5097 33.852 67.6069 39.2349 67.6069 44.3783H56.3086V43.3012C56.3086 40.0712 56.9862 36.9615 58.5685 33.852C58.7937 33.2541 58.1161 32.5357 56.9862 32.4165C55.8568 32.2962 54.5011 32.6559 54.274 33.2541C52.6917 36.483 52.0146 39.833 52.0146 43.3015V44.3786H45.236V33.613C45.236 32.8946 44.3338 32.4167 42.9766 32.4167C41.6215 32.4167 40.7168 32.8944 40.7168 33.613V44.3786H33.9382V43.3015C33.9382 39.9523 33.2606 36.6033 31.6788 33.2541C31.4536 32.6562 30.0975 32.177 28.9681 32.4165C27.8382 32.5357 26.9344 33.2541 27.3858 33.852C28.7419 36.9615 29.6451 40.0712 29.6451 43.3012V44.3783H18.3473C18.3473 39.2349 17.6698 33.852 16.3142 28.5886C17.6703 28.7075 19.0259 28.8278 20.6072 28.8278C25.3526 28.8278 29.8718 27.8712 33.2611 26.0765C34.1649 25.598 34.1649 24.8801 33.2611 24.402C32.3574 23.9236 31.0018 23.9236 30.098 24.402C27.1601 25.7178 23.7703 26.4357 20.1558 26.4357C17.8965 26.4357 15.6366 26.0765 13.8281 25.598C9.30888 24.402 6.59814 21.8899 6.59814 19.2586C6.59814 16.3873 9.76125 13.9951 14.5067 12.7988C13.8281 14.1146 13.3772 15.4307 13.3772 16.8662C13.3772 17.5836 14.2805 18.0623 15.6366 18.0623C16.9917 18.0623 17.896 17.5833 17.896 16.8662C17.896 14.7128 18.7997 12.7988 20.6067 11.0046C24.6745 6.57883 33.2606 3.70804 42.7514 3.70804C52.4675 3.70804 61.2802 6.69857 65.3476 11.483C65.5723 11.8417 66.2493 12.0812 67.1546 12.2004C73.9336 12.6794 78.9052 15.6699 78.9052 19.2583C78.9052 21.8896 76.1925 24.2817 71.6738 25.5978Z" fill="black"/>
</svg>
