<svg width="35" height="36" viewBox="0 0 35 36" fill="none" xmlns="http://www.w3.org/2000/svg">
<g filter="url(#filter0_d_47_869)">
<path d="M18.275 26.8988C17.85 27.0336 17.15 27.0336 16.725 26.8988C13.1 25.7864 5 21.1459 5 13.2808C5 9.80887 8.1125 6.99988 11.95 6.99988C14.225 6.99988 16.2375 7.98864 17.5 9.51673C18.1422 8.73682 18.9787 8.10294 19.9425 7.66588C20.9063 7.22882 21.9705 7.00073 23.05 6.99988C26.8875 6.99988 30 9.80887 30 13.2808C30 21.1459 21.9 25.7864 18.275 26.8988Z" fill="white"/>
<path d="M18.275 26.8988C17.85 27.0336 17.15 27.0336 16.725 26.8988C13.1 25.7864 5 21.1459 5 13.2808C5 9.80887 8.1125 6.99988 11.95 6.99988C14.225 6.99988 16.2375 7.98864 17.5 9.51673C18.1422 8.73682 18.9787 8.10294 19.9425 7.66588C20.9063 7.22882 21.9705 7.00073 23.05 6.99988C26.8875 6.99988 30 9.80887 30 13.2808C30 21.1459 21.9 25.7864 18.275 26.8988Z" stroke="black" stroke-width="1.5" stroke-linecap="round" stroke-linejoin="round"/>
</g>
<defs>
<filter id="filter0_d_47_869" x="0.25" y="6.24988" width="34.5" height="29.5" filterUnits="userSpaceOnUse" color-interpolation-filters="sRGB">
<feFlood flood-opacity="0" result="BackgroundImageFix"/>
<feColorMatrix in="SourceAlpha" type="matrix" values="0 0 0 0 0 0 0 0 0 0 0 0 0 0 0 0 0 0 127 0" result="hardAlpha"/>
<feOffset dy="4"/>
<feGaussianBlur stdDeviation="2"/>
<feComposite in2="hardAlpha" operator="out"/>
<feColorMatrix type="matrix" values="0 0 0 0 0 0 0 0 0 0 0 0 0 0 0 0 0 0 0.25 0"/>
<feBlend mode="normal" in2="BackgroundImageFix" result="effect1_dropShadow_47_869"/>
<feBlend mode="normal" in="SourceGraphic" in2="effect1_dropShadow_47_869" result="shape"/>
</filter>
</defs>
</svg>
