<?xml version="1.0" encoding="UTF-8" standalone="no"?>
<svg
   width="32.098114"
   height="33.33643"
   version="1.1"
   id="svg66"
   sodipodi:docname="star_modified.svg"
   inkscape:version="1.2.2 (732a01da63, 2022-12-09)"
   xmlns:inkscape="http://www.inkscape.org/namespaces/inkscape"
   xmlns:sodipodi="http://sodipodi.sourceforge.net/DTD/sodipodi-0.dtd"
   xmlns:xlink="http://www.w3.org/1999/xlink"
   xmlns="http://www.w3.org/2000/svg"
   xmlns:svg="http://www.w3.org/2000/svg">
  <sodipodi:namedview
     id="namedview68"
     pagecolor="#505050"
     bordercolor="#eeeeee"
     borderopacity="1"
     inkscape:showpageshadow="0"
     inkscape:pageopacity="0"
     inkscape:pagecheckerboard="0"
     inkscape:deskcolor="#505050"
     showgrid="false"
     inkscape:zoom="8.883029"
     inkscape:cx="5.797572"
     inkscape:cy="12.383164"
     inkscape:window-width="1920"
     inkscape:window-height="991"
     inkscape:window-x="-9"
     inkscape:window-y="-9"
     inkscape:window-maximized="1"
     inkscape:current-layer="svg66" />
  <defs
     id="defs62">
    <linearGradient
       id="b"
       x1="-1483.396"
       x2="-1155.767"
       y1="1056.787"
       y2="1056.787"
       gradientUnits="userSpaceOnUse"
       xlink:href="#a"
       gradientTransform="matrix(0.0915668,0,0,0.09586751,136.82931,-85.587877)" />
    <linearGradient
       id="a">
      <stop
         offset="0"
         stop-color="#fcd635"
         id="stop57" />
      <stop
         offset="1"
         stop-color="#f7a928"
         id="stop59" />
    </linearGradient>
  </defs>
  <path
     fill="url(#b)"
     d="m 25.117814,30.638238 c -1.067303,0.798194 -7.915583,-4.261502 -9.227185,-4.272623 -1.311604,-0.01095 -8.2369836,4.932288 -9.2918331,4.116166 -1.0548496,-0.81612 1.425054,-9.198676 1.0298517,-10.508035 -0.3952023,-1.309359 -7.02582879,-6.677651 -6.6104818,-7.980203 0.4154385,-1.302552 8.7963643,-1.423537 9.8636672,-2.2217297 1.067302,-0.7980969 3.894794,-9.05919148 5.206488,-9.04816671 1.311511,0.0111214 4.011267,8.31890271 5.066116,9.13502271 1.054849,0.8160247 9.432936,1.0787007 9.82823,2.3880597 0.395203,1.309358 -6.317193,6.564911 -6.732632,7.867462 -0.415347,1.302552 1.935083,9.725854 0.867779,10.524047 z"
     color="#000000"
     overflow="visible"
     style="fill:url(#b);stroke-width:0.0936925;marker:none;image-rendering:auto"
     id="path64" />
</svg>
