<svg width="61" height="37" viewBox="0 0 61 37" fill="none" xmlns="http://www.w3.org/2000/svg">
<path d="M37.7625 21.9561V23.3436H31.7625V21.9561H33.96V15.6336C33.96 15.3836 33.9675 15.1261 33.9825 14.8611L32.4225 16.1661C32.3325 16.2361 32.2425 16.2811 32.1525 16.3011C32.0675 16.3161 31.985 16.3161 31.905 16.3011C31.83 16.2861 31.7625 16.2611 31.7025 16.2261C31.6425 16.1861 31.5975 16.1436 31.5675 16.0986L30.9825 15.2961L34.29 12.4836H35.8125V21.9561H37.7625ZM45.1161 16.4736C45.4161 16.1936 45.7461 15.9661 46.1061 15.7911C46.4661 15.6161 46.8886 15.5286 47.3736 15.5286C47.7936 15.5286 48.1661 15.6011 48.4911 15.7461C48.8161 15.8861 49.0861 16.0861 49.3011 16.3461C49.5211 16.6011 49.6861 16.9086 49.7961 17.2686C49.9111 17.6236 49.9686 18.0161 49.9686 18.4461V23.3436H48.1161V18.4461C48.1161 17.9761 48.0086 17.6136 47.7936 17.3586C47.5786 17.0986 47.2511 16.9686 46.8111 16.9686C46.4911 16.9686 46.1911 17.0411 45.9111 17.1861C45.6311 17.3311 45.3661 17.5286 45.1161 17.7786V23.3436H43.2636V12.1986H45.1161V16.4736ZM53.4779 16.9836C53.7179 16.5236 54.0029 16.1636 54.3329 15.9036C54.6629 15.6386 55.0529 15.5061 55.5029 15.5061C55.8579 15.5061 56.1429 15.5836 56.3579 15.7386L56.2379 17.1261C56.2129 17.2161 56.1754 17.2811 56.1254 17.3211C56.0804 17.3561 56.0179 17.3736 55.9379 17.3736C55.8629 17.3736 55.7504 17.3611 55.6004 17.3361C55.4554 17.3111 55.3129 17.2986 55.1729 17.2986C54.9679 17.2986 54.7854 17.3286 54.6254 17.3886C54.4654 17.4486 54.3204 17.5361 54.1904 17.6511C54.0654 17.7611 53.9529 17.8961 53.8529 18.0561C53.7579 18.2161 53.6679 18.3986 53.5829 18.6036V23.3436H51.7304V15.6486H52.8179C53.0079 15.6486 53.1404 15.6836 53.2154 15.7536C53.2904 15.8186 53.3404 15.9386 53.3654 16.1136L53.4779 16.9836Z" fill="black"/>
<path d="M13 12.9999V17.9999M21.75 18.2499C21.75 23.0799 17.83 26.9999 13 26.9999C8.17 26.9999 4.25 23.0799 4.25 18.2499C4.25 13.4199 8.17 9.49988 13 9.49988C17.83 9.49988 21.75 13.4199 21.75 18.2499Z" stroke="black" stroke-width="1.5" stroke-linecap="round" stroke-linejoin="round"/>
<path d="M10 6.99988H16" stroke="black" stroke-width="1.5" stroke-miterlimit="10" stroke-linecap="round" stroke-linejoin="round"/>
</svg>
